<svg width="82" height="42" viewBox="0 0 82 42" fill="none" xmlns="http://www.w3.org/2000/svg">
<g id="logo" clip-path="url(#clip0_83_3261)">
<g id="Group">
<path id="Vector" d="M62.5 0.964947C63.526 0.407947 64.966 0.246947 65.856 1.07195C66.746 1.89695 66.532 3.11995 65.856 5.04495C65.856 5.04495 64.351 9.11095 62.801 13.3069L62.403 14.3869C60.989 18.2169 59.641 21.8739 59.476 22.3499C57.978 26.5949 61.443 26.4719 63.5 22.1979C64.659 19.8039 66.144 15.8409 66.144 15.8409C66.668 14.2779 66.826 13.3369 66.503 13.0129C66.396 12.8999 66.548 12.7609 66.683 12.6899C68.952 11.5409 71.313 12.6179 70.019 15.9999L69.965 16.1379C69.578 17.1159 67.285 22.8709 67.285 22.8709C66.609 24.5309 66.69 26.1069 67.703 26.1069C68.389 26.1029 69.163 25.7219 70.007 25.0189C71.825 23.5149 73.229 20.7069 73.734 19.5649C73.964 19.0569 74.821 17.1449 75.5 15.2039C75.736 14.5389 75.869 13.8439 75.895 13.1389C75.8776 13.0518 75.8867 12.9614 75.9213 12.8796C75.9559 12.7977 76.0143 12.7282 76.089 12.6799C76.6032 12.4061 77.1764 12.2619 77.759 12.2599C78.0413 12.2547 78.3209 12.3157 78.5754 12.4382C78.8298 12.5606 79.052 12.741 79.224 12.9649C79.667 13.5629 79.79 14.5439 79.327 15.7729C79.207 16.0929 75.552 25.7309 75.552 25.7309V25.7569C77.593 24.5339 79.422 24.4439 80.505 24.9029L80.502 24.8899C81.997 25.5369 82.492 27.3299 81.44 28.4489C81.337 28.5589 81.078 28.5329 81.078 28.3589C80.984 27.1059 78.561 24.8639 74.969 27.2839L74.824 27.6689L73.756 30.4769C71.136 37.4949 68.353 42.6129 64.341 41.4769C61.653 40.7169 61.964 36.8699 64.856 33.6869C66.8586 31.551 69.0288 29.5787 71.346 27.7889C71.414 27.6009 71.476 27.4389 71.534 27.2779C71.812 26.4979 72.025 25.8439 72.326 25.0129L72.485 24.4949C72.307 24.6949 71.987 25.0679 71.773 25.3069C71.061 26.1069 69.279 28.0639 66.444 27.5139L66.21 27.4619C64.16 26.9539 63.602 25.4759 63.555 24.1849C61.413 26.8409 59.204 27.6109 57.748 27.5749C55.8 27.5269 54.37 26.0609 55.321 23.2849C56.379 20.1789 60.821 7.95295 62.116 4.28495C62.601 2.70495 62.782 1.70495 62.3 1.31095C62.177 1.20795 62.352 1.04595 62.5 0.964947ZM70.864 29.7429C69.761 30.6229 65.338 34.2729 64.112 37.1839C63.607 38.3809 63.736 39.3329 64.6 39.4169C66.56 39.6109 68.612 35.5989 70.828 29.9049L70.864 29.7429ZM16.028 5.35195C15.941 5.68395 14.709 9.21195 13.327 13.1009L13.118 13.6869L12.908 14.2759L12.693 14.8799C17.384 13.7569 25.757 8.30995 26.728 4.79495C26.848 4.63395 27.018 4.57495 27.294 4.75995C27.789 5.08995 27.98 5.91495 27.789 6.67795C27.025 9.71595 21.373 14.0189 16.41 16.2319C17.022 17.8689 19.092 22.4989 20.616 25.3429C22.279 28.4619 24.036 29.9179 26.763 30.0799C28.223 30.1649 29.777 29.6329 30.656 28.8599L30.804 28.7199L30.791 28.7499C30.985 28.5459 31.302 28.8269 31.157 29.0729C30.601 29.9021 29.8614 30.592 28.9957 31.0892C28.13 31.5864 27.1614 31.8775 26.165 31.9399C19.82 32.3669 17.391 28.0699 12.861 17.4459C12.495 17.5719 12.052 17.7339 11.606 17.8959C11.531 18.0829 9.53599 23.5379 9.47599 23.7189C8.53199 26.5889 8.47099 28.1609 9.11799 28.6139C9.26299 28.7039 9.19199 28.9469 8.93999 29.0279C6.41299 29.8239 4.08699 28.3319 5.38099 24.5859C6.542 21.2699 11.071 8.40595 12.295 4.95995C12.722 3.66595 12.492 2.83495 11.803 2.65395C8.50599 1.77995 0.876995 8.74895 1.97099 15.1839C2.16099 16.3039 2.95099 16.9309 3.34899 16.8469C3.37068 16.8426 3.3931 16.8437 3.41424 16.8502C3.43537 16.8568 3.45455 16.8684 3.47004 16.8842C3.48553 16.9 3.49683 16.9194 3.50294 16.9407C3.50904 16.9619 3.50975 16.9844 3.50499 17.0059C3.39417 17.3855 3.1387 17.7063 2.79361 17.8994C2.44852 18.0924 2.04142 18.1422 1.65999 18.0379C0.489995 17.7819 0.106995 16.5269 0.0429947 15.8799C-0.601005 9.21995 6.14799 1.22995 12.389 0.579947C14.767 0.329947 16.998 1.53995 16.028 5.35195ZM40.068 15.2649L40.008 15.4719L37.178 23.6319C36.874 24.4819 37.078 25.3689 37.679 25.5339C39.436 26.0159 41.707 23.3889 42.81 20.8009C43.3403 19.5444 43.8325 18.2722 44.286 16.9859C44.868 15.3429 45.392 13.8029 45.069 13.0779C44.994 12.9099 45.114 12.8219 45.292 12.7279C45.797 12.4729 47.518 11.9029 48.433 12.7959C49.128 13.4699 49.042 14.5669 48.403 16.2329L48.307 16.4749L48.527 16.2019C51.23 12.9019 53.319 11.9099 55.09 12.6049L55.237 12.6669C57.618 13.7409 56.383 17.8819 53.121 18.1469C52.921 18.1639 52.765 18.0209 52.963 17.7399C53.358 17.1349 53.319 15.8309 52.167 15.7179C51.015 15.6049 49.337 16.9249 48.129 18.5619C47.045 20.0119 45.929 22.4729 44.807 25.8349C44.535 26.6529 44.664 26.8469 44.697 26.9019C44.7047 26.9164 44.7087 26.9326 44.7087 26.9489C44.7087 26.9653 44.7047 26.9815 44.697 26.9959C44.554 27.2679 43.732 27.5919 42.937 27.5919C41.312 27.5849 40.646 26.6469 40.97 25.1549C39.122 26.9189 37.259 27.7689 35.615 27.6209C35.2533 27.5895 34.9026 27.4804 34.5869 27.3011C34.2712 27.1218 33.998 26.8766 33.7857 26.582C33.5735 26.2874 33.4272 25.9506 33.3571 25.5944C33.2869 25.2382 33.2943 24.871 33.379 24.5179C31.953 26.3269 29.837 27.7859 27.682 27.5849C25.527 27.3849 24.182 25.9189 24.88 22.7969C25.47 20.1989 28.2195 13.6869 31.5 11.4999C33 10.4999 34.6656 10.678 35 10.4999C36.5 10.9999 36.7231 11.4522 36.207 12.9468C34 12.9999 32.5 14.4999 31.157 16.2019C29.2556 18.1878 28.1559 21.5192 28 21.9999C27.263 24.2869 28.365 25.7089 29.41 25.7659C30.455 25.8259 31.84 24.8059 32.83 23.2629C34.59 20.7389 35.411 17.5779 36.207 15.3809C36.411 14.8209 37 13.4999 36.207 12.9468C35.99 13.0424 34.792 10.6139 35 10.4999C37 9.99994 40.951 12.0169 40.068 15.2649Z" fill="#5F0080"/>
</g>
</g>
<defs>
<clipPath id="clip0_83_3261">
<rect width="82" height="42" fill="white"/>
</clipPath>
</defs>
</svg>
